<?xml version="1.0" encoding="UTF-8" standalone="no"?>
<!-- Created with Inkscape (http://www.inkscape.org/) -->

<svg
   xmlns:dc="http://purl.org/dc/elements/1.1/"
   xmlns:cc="http://creativecommons.org/ns#"
   xmlns:rdf="http://www.w3.org/1999/02/22-rdf-syntax-ns#"
   xmlns:svg="http://www.w3.org/2000/svg"
   xmlns="http://www.w3.org/2000/svg"
   xmlns:sodipodi="http://sodipodi.sourceforge.net/DTD/sodipodi-0.dtd"
   xmlns:inkscape="http://www.inkscape.org/namespaces/inkscape"
   width="744.09448819"
   height="1052.3622047"
   id="svg2"
   version="1.1"
   inkscape:version="0.48.3.1 r9886"
   sodipodi:docname="dolfyn_logo.svg">
  <defs
     id="defs4" />
  <sodipodi:namedview
     id="base"
     pagecolor="#ffffff"
     bordercolor="#666666"
     borderopacity="1.0"
     inkscape:pageopacity="0.0"
     inkscape:pageshadow="2"
     inkscape:zoom="0.7"
     inkscape:cx="930.81014"
     inkscape:cy="1015.6594"
     inkscape:document-units="px"
     inkscape:current-layer="layer1"
     showgrid="false"
     inkscape:window-width="1855"
     inkscape:window-height="1056"
     inkscape:window-x="65"
     inkscape:window-y="24"
     inkscape:window-maximized="1" />
  <metadata
     id="metadata7">
    <rdf:RDF>
      <cc:Work
         rdf:about="">
        <dc:format>image/svg+xml</dc:format>
        <dc:type
           rdf:resource="http://purl.org/dc/dcmitype/StillImage" />
      </cc:Work>
    </rdf:RDF>
  </metadata>
  <g
     inkscape:label="Layer 1"
     inkscape:groupmode="layer"
     id="layer1">
    <g
       id="g3799"
       transform="matrix(1.5469968,0,0,1.5469968,-373.33633,-113.25784)">
      <path
         sodipodi:nodetypes="csssc"
         inkscape:connector-curvature="0"
         id="path2985"
         d="m 592.78749,249.12168 c 7.63358,10.04698 30.6972,3.08655 32.00359,6.55613 2.93323,7.79023 -24.1372,6.56423 -31.92386,15.3118 -21.63938,24.30973 -73.9421,30.50241 -93.22699,44.16629 -40.9383,29.00596 -97.39637,75.11301 -97.39637,75.11301"
         style="fill:none;stroke:#000000;stroke-width:0.64641374px;stroke-linecap:butt;stroke-linejoin:miter;stroke-opacity:1" />
      <path
         inkscape:connector-curvature="0"
         id="path2987"
         d="m 354.28735,405.21719 c -44.14577,4.01878 -69.28435,24.9165 -66.83181,29.73905 2.45254,4.82253 33.10933,11.2526 40.46697,7.23382 7.35762,-4.01878 13.48898,-8.03759 13.48898,-8.03759 0,0 -3.06568,6.43007 -1.8394,12.86014 1.22628,6.43007 27.59112,22.50522 33.10934,23.30899 5.51824,0.80374 -4.90508,-45.81421 -7.97076,-49.83301 -3.06568,-4.01878 -3.67882,-4.82255 -3.67882,-4.82255"
         style="fill:#9092d2;fill-opacity:1;stroke:#000000;stroke-width:0.64641368px;stroke-linecap:butt;stroke-linejoin:miter;stroke-opacity:1" />
      <path
         style="fill:#9092d2;fill-opacity:1;stroke:#000000;stroke-width:0.64641374px;stroke-linecap:butt;stroke-linejoin:miter;stroke-opacity:1"
         d="m 337.82071,407.95866 c 42.82516,-93.04082 56.78358,-91.81482 60.22103,-128.96414 2.71464,-29.33781 -31.78134,-38.86806 -18.46806,-41.01275 26.54213,-4.27581 48.07914,16.93038 58.59599,10.9045 70.91736,-40.63384 115.82004,-44.80196 138.6101,-21.2996 9.33405,9.6258 59.08594,-17.37252 55.21459,1.35139 -0.73697,3.56442 -46.29463,10.04855 -39.17242,20.62589 -20.59333,4.86648 -54.61939,16.09775 -63.19156,36.00502 -8.48388,19.70219 -1.9054,41.84816 -24.09949,62.44349 -7.35611,6.82622 -8.21125,-39.79009 -19.55078,-47.28382 -7.53059,-4.9766 -66.1312,75.66669 -91.60318,96.45096 l -29.70805,24.2408"
         id="path2991"
         inkscape:connector-curvature="0"
         sodipodi:nodetypes="cssssscssssc" />
      <path
         transform="matrix(0.05022105,0,0,0.05023488,533.23097,211.98132)"
         d="m 627.14288,326.64789 c 0,44.18278 -35.81722,80 -80,80 -44.18278,0 -80,-35.81722 -80,-80 0,-44.18278 35.81722,-80 80,-80 44.18278,0 80,35.81722 80,80 z"
         sodipodi:ry="80"
         sodipodi:rx="80"
         sodipodi:cy="326.64789"
         sodipodi:cx="547.14288"
         id="path3761"
         style="fill:#000000;fill-opacity:1;stroke:none"
         sodipodi:type="arc" />
    </g>
    <g
       id="g3805"
       transform="matrix(1.5469968,0,0,1.5469968,-373.33633,-113.25784)">
      <path
         inkscape:connector-curvature="0"
         id="path3763"
         d="m 635.43794,217.94157 c 23.30257,18.48643 12.05305,37.77662 12.05305,37.77662"
         style="fill:none;stroke:#000000;stroke-width:1.42211008;stroke-linecap:butt;stroke-linejoin:miter;stroke-miterlimit:4;stroke-opacity:1;stroke-dasharray:none" />
      <path
         style="fill:none;stroke:#000000;stroke-width:1.42211008;stroke-linecap:butt;stroke-linejoin:miter;stroke-miterlimit:4;stroke-opacity:1;stroke-dasharray:none"
         d="m 645.88392,213.11902 c 28.37387,22.41973 14.67612,45.8142 14.67612,45.8142"
         id="path3765"
         inkscape:connector-curvature="0" />
      <path
         inkscape:connector-curvature="0"
         id="path3767"
         d="m 663.14588,208.15391 c 31.8588,30.61784 12.37826,57.3571 12.37826,57.3571"
         style="fill:none;stroke:#000000;stroke-width:1.42211008;stroke-linecap:butt;stroke-linejoin:miter;stroke-miterlimit:4;stroke-opacity:1;stroke-dasharray:none" />
    </g>
    <text
       xml:space="preserve"
       style="font-size:40px;font-style:normal;font-weight:normal;line-height:125%;letter-spacing:0px;word-spacing:0px;fill:#000000;fill-opacity:1;stroke:none;font-family:Sans"
       x="38.57143"
       y="86.647896"
       id="text3810"
       sodipodi:linespacing="125%"><tspan
         sodipodi:role="line"
         id="tspan3812"
         x="38.57143"
         y="86.647896"><tspan
           style="font-weight:bold"
           id="tspan3838">D</tspan><tspan
           style="font-size:28px"
           id="tspan3814">oppler</tspan><tspan
           style="font-weight:bold"
           id="tspan3836"> O</tspan><tspan
           style="font-size:28px"
           id="tspan3818">ceanography</tspan><tspan
           style="font-weight:bold"
           id="tspan3834"> L</tspan><tspan
           style="font-size:28px"
           id="tspan3820">ibrary</tspan><tspan
           style="font-weight:bold"
           id="tspan3832"> F</tspan><tspan
           style="font-size:28px"
           id="tspan3822">or p</tspan><tspan
           style="font-weight:bold"
           id="tspan3830">Y</tspan><tspan
           style="font-size:28px"
           id="tspan3826">tho</tspan><tspan
           style="font-weight:bold"
           id="tspan3828">N</tspan></tspan></text>
  </g>
</svg>
